# Blender v2.83.3 OBJ File: 'cannon.blend'
# www.blender.org
mtllib cannon_axle.mtl
o Cube.001_Cube.002
v -0.477388 -0.551680 0.295345
v -0.477388 -0.014744 0.212570
v -0.477388 -0.551680 -0.529556
v -0.477388 -0.014744 -0.446782
v 0.477388 -0.551680 0.295345
v 0.477388 -0.014744 0.212570
v 0.477388 -0.551680 -0.529556
v 0.477388 -0.014744 -0.446782
v 0.477388 -0.425695 0.212570
v 0.477388 -0.425695 -0.446782
v -0.477388 -0.425695 -0.446782
v -0.477388 -0.425695 0.212570
v -0.477388 -0.551680 0.033210
v -0.477388 -0.551680 -0.267422
v -0.477388 0.174929 -0.267422
v -0.477388 0.174929 0.033210
v 0.477388 -0.551680 -0.267422
v 0.477388 -0.551680 0.033210
v 0.477388 0.174929 0.033210
v 0.477388 0.174929 -0.267422
v 0.477388 -0.425695 0.033210
v 0.477388 -0.425695 -0.267422
v -0.477388 -0.425695 -0.267422
v -0.477388 -0.425695 0.033210
v 0.214291 -0.220220 0.212570
v -0.214291 -0.220220 0.212570
v -0.477388 -0.125383 0.033210
v 0.477388 -0.125383 -0.267422
v 0.477388 -0.220220 -0.446782
v 0.477388 -0.220220 0.212570
v -0.477388 -0.125383 -0.267422
v -0.477388 -0.220220 -0.446782
v 0.477388 -0.125383 0.033210
v -0.477388 -0.220220 0.212570
v 0.214291 -0.551680 -0.529556
v -0.214291 -0.551680 -0.529556
v -0.214291 -0.014744 -0.446782
v 0.214291 -0.014744 -0.446782
v -0.214291 -0.551680 0.295345
v 0.214291 -0.551680 0.295345
v -0.214291 -0.014744 0.212570
v 0.214291 -0.014744 0.212570
v -0.214291 0.174929 0.033210
v 0.214291 0.174929 0.033210
v 0.214291 0.174929 -0.267422
v -0.214291 0.174929 -0.267422
v 0.214291 -0.551680 0.033210
v -0.214291 -0.551680 0.033210
v -0.214291 -0.551680 -0.267422
v 0.214291 -0.551680 -0.267422
v 0.214291 -0.425695 0.212570
v -0.214291 -0.425695 0.212570
v 0.214291 -0.220220 -0.446782
v -0.214291 -0.220220 -0.446782
v -0.214291 -0.425695 -0.446782
v 0.214291 -0.425695 -0.446782
v -0.477388 -0.220220 0.212570
v -0.477388 -0.014744 0.212570
v -0.477388 -0.425695 -0.446782
v -0.477388 -0.551680 -0.529556
v -0.477388 -0.551680 -0.529556
v 0.477388 -0.425695 -0.446782
v 0.477388 -0.551680 -0.529556
v 0.477388 -0.551680 -0.529556
v -0.477388 -0.220220 -0.446782
v 0.477388 -0.425695 0.212570
v 0.477388 -0.551680 0.295345
v 0.477388 -0.551680 0.295345
v 0.477388 -0.220220 0.212570
v -0.477388 -0.551680 0.295345
v -0.477388 -0.551680 0.295345
v -0.477388 -0.425695 0.212570
v 0.477388 -0.220220 -0.446782
v -0.477388 0.174929 -0.267422
v -0.477388 0.174929 0.033210
v -0.214291 -0.220220 0.212570
v -0.214291 -0.220220 0.212570
v 0.214291 -0.220220 0.212570
v 0.214291 -0.220220 0.212570
v 0.477388 0.174929 0.033210
v 0.477388 0.174929 -0.267422
v 0.477388 -0.551680 -0.267422
v 0.477388 -0.551680 0.033210
v -0.477388 -0.551680 0.033210
v -0.477388 -0.551680 -0.267422
v 0.477388 -0.014744 -0.446782
v -0.477388 -0.014744 -0.446782
v 0.477388 -0.014744 0.212570
v 0.214291 -0.220220 -0.446782
v 0.214291 -0.220220 -0.446782
v -0.214291 -0.220220 -0.446782
v -0.214291 -0.220220 -0.446782
v 0.214291 -0.425695 0.212570
v -0.214291 -0.425695 0.212570
v -0.214291 -0.551680 0.295345
v -0.214291 -0.551680 0.295345
v 0.214291 -0.551680 0.295345
v 0.214291 -0.551680 0.295345
v -0.214291 -0.551680 0.033210
v -0.214291 -0.551680 -0.267422
v 0.214291 -0.551680 -0.267422
v 0.214291 -0.551680 0.033210
v 0.214291 -0.551680 -0.529556
v 0.214291 -0.551680 -0.529556
v -0.214291 -0.551680 -0.529556
v -0.214291 -0.551680 -0.529556
v -0.214291 -0.425695 -0.446782
v 0.214291 -0.425695 -0.446782
vt 0.696591 0.856818
vt 0.692046 0.861828
vt 0.692046 0.856818
vt 0.714773 0.875000
vt 0.709763 0.880625
vt 0.709763 0.875000
vt 0.687500 0.838636
vt 0.678409 0.844261
vt 0.678409 0.838636
vt 0.701601 0.887557
vt 0.696591 0.893182
vt 0.696591 0.887557
vt 0.692046 0.851193
vt 0.696591 0.856818
vt 0.692046 0.856818
vt 0.696591 0.875000
vt 0.692046 0.880625
vt 0.692046 0.875000
vt 0.692046 0.898192
vt 0.692046 0.893182
vt 0.714773 0.887557
vt 0.709763 0.893182
vt 0.709763 0.887557
vt 0.692046 0.887557
vt 0.696591 0.893182
vt 0.692046 0.893182
vt 0.687500 0.869990
vt 0.678409 0.875000
vt 0.678409 0.869990
vt 0.714773 0.880625
vt 0.673399 0.887557
vt 0.678409 0.880625
vt 0.678409 0.887557
vt 0.678409 0.887557
vt 0.687500 0.880625
vt 0.687500 0.887557
vt 0.678409 0.851193
vt 0.687500 0.844261
vt 0.687500 0.851193
vt 0.696591 0.838636
vt 0.692046 0.844261
vt 0.692046 0.838636
vt 0.687500 0.893182
vt 0.678409 0.893182
vt 0.687500 0.875000
vt 0.678409 0.880625
vt 0.678409 0.875000
vt 0.687500 0.856818
vt 0.678409 0.856818
vt 0.673399 0.893182
vt 0.701601 0.875000
vt 0.696591 0.880625
vt 0.696591 0.875000
vt 0.678409 0.875000
vt 0.673399 0.880625
vt 0.673399 0.875000
vt 0.665237 0.887557
vt 0.660227 0.893182
vt 0.660227 0.887557
vt 0.692046 0.869990
vt 0.696591 0.861828
vt 0.696591 0.869990
vt 0.665237 0.880625
vt 0.687500 0.856818
vt 0.678409 0.861828
vt 0.678409 0.856818
vt 0.687500 0.906354
vt 0.678409 0.911364
vt 0.678409 0.906354
vt 0.701601 0.880625
vt 0.696591 0.906354
vt 0.692046 0.911364
vt 0.692046 0.906354
vt 0.687500 0.893182
vt 0.678409 0.898192
vt 0.678409 0.893182
vt 0.692046 0.875000
vt 0.665237 0.875000
vt 0.660227 0.880625
vt 0.660227 0.875000
vt 0.696591 0.898192
vt 0.687500 0.875000
vt 0.687500 0.911364
vt 0.696591 0.880625
vt 0.696591 0.887557
vt 0.696591 0.844261
vt 0.696591 0.851193
vt 0.687500 0.898192
vt 0.687500 0.861828
vt 0.692046 0.861828
vt 0.692046 0.898192
vt 0.692046 0.906354
vt 0.692046 0.898192
vt 0.687500 0.869990
vt 0.687500 0.898192
vt 0.673399 0.880625
vt 0.673399 0.887557
vt 0.687500 0.906354
vt 0.665237 0.887557
vt 0.665237 0.880625
vt 0.692046 0.861828
vt 0.687500 0.861828
vt 0.701601 0.893182
vt 0.714773 0.893182
vt 0.678409 0.893182
vt 0.665237 0.893182
vt 0.696591 0.911364
vt 0.692046 0.869990
vt 0.692046 0.869990
vt 0.678409 0.898192
vt 0.673399 0.875000
vt 0.678409 0.861828
vt 0.665237 0.893182
vt 0.692046 0.906354
vn 0.0000 0.3697 -0.9291
vn 0.0000 0.0000 -1.0000
vn 0.0000 0.9184 -0.3956
vn -1.0000 0.0000 0.0000
vn 0.0000 0.9184 0.3956
vn 0.0000 0.3697 0.9291
vn 1.0000 0.0000 0.0000
vn 0.0000 0.0000 1.0000
vn 0.0000 0.2866 -0.9580
vn 0.0000 0.5491 -0.8357
vn 0.0000 -1.0000 0.0000
vn 0.0000 0.2866 0.9580
vn 0.0000 0.5491 0.8357
usemtl Tex
s 1
f 87/1/1 91/2/2 32/3/2
f 87/4/1 46/5/3 37/6/1
f 72/7/4 84/8/4 70/9/4
f 44/10/5 88/11/6 80/12/5
f 31/13/4 4/14/4 65/15/4
f 86/16/7 28/17/7 73/18/7
f 88/11/6 78/19/8 30/20/8
f 75/21/5 41/22/6 43/23/5
f 33/24/7 6/25/7 69/26/7
f 56/27/9 63/28/10 104/29/10
f 43/23/5 74/30/3 75/21/5
f 102/31/11 17/32/11 83/33/11
f 18/34/7 22/35/7 21/36/7
f 85/37/4 24/38/4 23/39/4
f 58/40/4 27/41/4 57/42/4
f 23/39/4 27/41/4 31/13/4
f 21/36/7 28/17/7 33/24/7
f 18/34/7 66/43/7 67/44/7
f 10/45/7 82/46/7 64/47/7
f 85/37/4 59/48/4 60/49/4
f 83/33/11 98/50/11 102/31/11
f 38/51/1 81/52/3 8/53/1
f 7/54/11 101/55/11 103/56/11
f 99/57/11 71/58/11 13/59/11
f 89/60/2 37/61/1 38/62/1
f 13/59/11 100/63/11 99/57/11
f 11/64/9 106/65/10 61/66/10
f 52/67/12 1/68/13 95/69/13
f 80/12/5 45/70/3 44/10/5
f 41/71/6 34/72/8 76/73/8
f 9/74/12 97/75/13 5/76/13
f 38/62/1 29/77/2 89/60/2
f 45/70/3 43/23/5 44/10/5
f 41/22/6 44/10/5 43/23/5
f 46/5/3 38/51/1 37/6/1
f 105/78/11 14/79/11 3/80/11
f 76/73/8 42/81/6 41/71/6
f 89/60/2 62/82/9 56/27/9
f 76/73/8 12/83/12 52/67/12
f 33/24/7 20/84/7 19/85/7
f 31/13/4 16/86/4 15/87/4
f 57/42/4 24/38/4 72/7/4
f 21/36/7 69/26/7 66/43/7
f 30/20/8 93/88/12 9/74/12
f 73/18/7 22/35/7 10/45/7
f 23/39/4 65/15/4 59/48/4
f 32/3/2 55/89/9 11/64/9
f 92/90/11 79/91/11 77/92/11
f 25/93/4 108/94/4 51/95/4
f 108/94/4 50/96/4 47/97/4
f 94/98/7 48/99/7 49/100/7
f 54/101/7 94/98/7 107/102/7
f 87/1/1 37/61/1 91/2/2
f 87/4/1 74/30/3 46/5/3
f 72/7/4 24/38/4 84/8/4
f 44/10/5 42/103/6 88/11/6
f 31/13/4 15/87/4 4/14/4
f 86/16/7 20/84/7 28/17/7
f 88/11/6 42/81/6 78/19/8
f 75/21/5 2/104/6 41/22/6
f 33/24/7 19/85/7 6/25/7
f 56/27/9 62/82/9 63/28/10
f 43/23/5 46/5/3 74/30/3
f 102/31/11 101/55/11 17/32/11
f 18/34/7 82/46/7 22/35/7
f 85/37/4 84/8/4 24/38/4
f 58/40/4 16/86/4 27/41/4
f 23/39/4 24/38/4 27/41/4
f 21/36/7 22/35/7 28/17/7
f 18/34/7 21/36/7 66/43/7
f 10/45/7 22/35/7 82/46/7
f 85/37/4 23/39/4 59/48/4
f 83/33/11 68/105/11 98/50/11
f 38/51/1 45/70/3 81/52/3
f 7/54/11 17/32/11 101/55/11
f 99/57/11 96/106/11 71/58/11
f 89/60/2 91/2/2 37/61/1
f 13/59/11 14/79/11 100/63/11
f 11/64/9 55/89/9 106/65/10
f 52/67/12 12/83/12 1/68/13
f 80/12/5 81/52/3 45/70/3
f 41/71/6 2/107/6 34/72/8
f 9/74/12 93/88/12 97/75/13
f 38/62/1 8/53/1 29/77/2
f 45/70/3 46/5/3 43/23/5
f 41/22/6 42/103/6 44/10/5
f 46/5/3 45/70/3 38/51/1
f 105/78/11 100/63/11 14/79/11
f 76/73/8 78/19/8 42/81/6
f 89/60/2 29/77/2 62/82/9
f 76/73/8 34/72/8 12/83/12
f 33/24/7 28/17/7 20/84/7
f 31/13/4 27/41/4 16/86/4
f 57/42/4 27/41/4 24/38/4
f 21/36/7 33/24/7 69/26/7
f 30/20/8 78/19/8 93/88/12
f 73/18/7 28/17/7 22/35/7
f 23/39/4 31/13/4 65/15/4
f 32/3/2 91/2/2 55/89/9
f 92/90/11 90/108/11 79/91/11
f 25/93/4 53/109/4 108/94/4
f 40/110/4 51/95/4 47/97/4
f 51/95/4 108/94/4 47/97/4
f 108/94/4 35/111/4 50/96/4
f 36/112/7 107/102/7 49/100/7
f 107/102/7 94/98/7 49/100/7
f 94/98/7 39/113/7 48/99/7
f 54/101/7 26/114/7 94/98/7
