# Blender v2.83.3 OBJ File: ''
# www.blender.org
o Circle
v 0.000000 0.131660 -0.891461
v -0.523988 0.131660 -0.721207
v -0.847830 0.131660 -0.275477
v -0.847830 0.131660 0.275477
v -0.523988 0.131660 0.721207
v 0.000000 0.131660 0.891461
v 0.523988 0.131660 0.721207
v 0.847830 0.131660 0.275477
v 0.847830 0.131660 -0.275477
v 0.523987 0.131660 -0.721207
v -0.000000 0.131660 -0.561555
v -0.330074 0.131660 -0.454307
v -0.534070 0.131660 -0.173530
v -0.534070 0.131660 0.173530
v -0.330074 0.131660 0.454307
v 0.000000 0.131660 0.561555
v 0.330074 0.131660 0.454307
v 0.534070 0.131660 0.173530
v 0.534070 0.131660 -0.173530
v 0.330074 0.131660 -0.454308
v -0.000000 0.250373 -0.561555
v -0.330074 0.250373 -0.454307
v -0.534070 0.250373 -0.173530
v -0.534070 0.250373 0.173530
v -0.330074 0.250373 0.454307
v 0.000000 0.250373 0.561555
v 0.330074 0.250373 0.454307
v 0.534070 0.250373 0.173530
v 0.534070 0.250373 -0.173530
v 0.330074 0.250373 -0.454308
v -0.000000 0.250373 -0.207095
v -0.121728 0.250373 -0.167544
v -0.196959 0.250373 -0.063996
v -0.196959 0.250373 0.063996
v -0.121728 0.250373 0.167544
v -0.000000 0.250373 0.207095
v 0.121728 0.250373 0.167544
v 0.196959 0.250373 0.063996
v 0.196959 0.250373 -0.063996
v 0.121727 0.250373 -0.167544
v -0.000000 0.221049 -0.207095
v -0.121728 0.221049 -0.167544
v -0.196959 0.221049 -0.063996
v -0.196959 0.221049 0.063996
v -0.121728 0.221049 0.167544
v -0.000000 0.221049 0.207095
v 0.121728 0.221049 0.167544
v 0.196959 0.221049 0.063996
v 0.196959 0.221049 -0.063996
v 0.121727 0.221049 -0.167544
v -0.294397 0.155862 0.662529
v -0.645543 0.155862 0.393979
v -1.153714 0.155862 1.944922
v -1.658100 0.155862 1.559177
v 0.000000 0.000000 -1.000000
v -0.587785 0.000000 -0.809017
v -0.951057 0.000000 -0.309017
v -0.951056 0.000000 0.309017
v -0.587785 0.000000 0.809017
v 0.000000 0.000000 1.000000
v 0.587785 0.000000 0.809017
v 0.951056 0.000000 0.309017
v 0.951056 0.000000 -0.309017
v 0.587785 0.000000 -0.809017
v 0.000000 -0.131660 -0.891461
v -0.523988 -0.131660 -0.721207
v -0.847830 -0.131660 -0.275477
v -0.847830 -0.131660 0.275477
v -0.523988 -0.131660 0.721207
v 0.000000 -0.131660 0.891461
v 0.523988 -0.131660 0.721207
v 0.847830 -0.131660 0.275477
v 0.847830 -0.131660 -0.275477
v 0.523987 -0.131660 -0.721207
v -0.000000 -0.131660 -0.561555
v -0.330074 -0.131660 -0.454307
v -0.534070 -0.131660 -0.173530
v -0.534070 -0.131660 0.173530
v -0.330074 -0.131660 0.454307
v 0.000000 -0.131660 0.561555
v 0.330074 -0.131660 0.454307
v 0.534070 -0.131660 0.173530
v 0.534070 -0.131660 -0.173530
v 0.330074 -0.131660 -0.454308
v -0.000000 -0.250373 -0.561555
v -0.330074 -0.250373 -0.454307
v -0.534070 -0.250373 -0.173530
v -0.534070 -0.250373 0.173530
v -0.330074 -0.250373 0.454307
v 0.000000 -0.250373 0.561555
v 0.330074 -0.250373 0.454307
v 0.534070 -0.250373 0.173530
v 0.534070 -0.250373 -0.173530
v 0.330074 -0.250373 -0.454308
v -0.000000 -0.250373 -0.207095
v -0.121728 -0.250373 -0.167544
v -0.196959 -0.250373 -0.063996
v -0.196959 -0.250373 0.063996
v -0.121728 -0.250373 0.167544
v -0.000000 -0.250373 0.207095
v 0.121728 -0.250373 0.167544
v 0.196959 -0.250373 0.063996
v 0.196959 -0.250373 -0.063996
v 0.121727 -0.250373 -0.167544
v -0.000000 -0.221049 -0.207095
v -0.121728 -0.221049 -0.167544
v -0.196959 -0.221049 -0.063996
v -0.196959 -0.221049 0.063996
v -0.121728 -0.221049 0.167544
v -0.000000 -0.221049 0.207095
v 0.121728 -0.221049 0.167544
v 0.196959 -0.221049 0.063996
v 0.196959 -0.221049 -0.063996
v 0.121727 -0.221049 -0.167544
v -0.086111 0.000000 0.532689
v -0.574789 0.000000 0.158957
v -1.194459 0.000000 2.202894
v -1.896395 0.000000 1.666066
v -0.294397 -0.155862 0.662529
v -0.645543 -0.155862 0.393979
v -1.153714 -0.155862 1.944922
v -1.658100 -0.155862 1.559177
vt 0.713814 0.918965
vt 0.706578 0.898874
vt 0.717362 0.913900
vt 0.735015 0.853686
vt 0.717556 0.865524
vt 0.713828 0.860602
vt 0.769363 0.900949
vt 0.763517 0.880639
vt 0.769363 0.878617
vt 0.734920 0.919708
vt 0.735032 0.925890
vt 0.706659 0.880429
vt 0.700757 0.878633
vt 0.756243 0.860569
vt 0.752707 0.865641
vt 0.756249 0.919000
vt 0.752521 0.914068
vt 0.700741 0.900888
vt 0.735136 0.859865
vt 0.763445 0.899151
vt 0.723813 0.874432
vt 0.753086 0.883826
vt 0.735113 0.908816
vt 0.716957 0.883975
vt 0.746154 0.874352
vt 0.746263 0.905144
vt 0.717000 0.895689
vt 0.734954 0.870754
vt 0.753128 0.895609
vt 0.723930 0.905207
vt 0.749498 0.885136
vt 0.734972 0.905006
vt 0.720625 0.885019
vt 0.744032 0.877524
vt 0.743903 0.902147
vt 0.720581 0.894368
vt 0.735096 0.874566
vt 0.749451 0.894574
vt 0.726063 0.902041
vt 0.726176 0.877424
vt 0.735015 0.895729
vt 0.729498 0.887918
vt 0.740607 0.887949
vt 0.738423 0.885051
vt 0.738429 0.894566
vt 0.729630 0.891575
vt 0.735029 0.883845
vt 0.740533 0.891580
vt 0.731623 0.894596
vt 0.731624 0.884992
vt 0.730290 0.888126
vt 0.737958 0.885723
vt 0.739743 0.891348
vt 0.730408 0.891303
vt 0.737913 0.893932
vt 0.735051 0.884654
vt 0.732092 0.893938
vt 0.732128 0.885629
vt 0.739840 0.888228
vt 0.734982 0.894921
vt 0.131743 0.694104
vt 0.119498 0.658058
vt 0.131743 0.648916
vt 0.041510 0.689871
vt 0.055087 0.663288
vt 0.054186 0.682026
vt 0.041434 0.655762
vt 0.118614 0.685312
vt 0.717362 0.913900
vt 0.717556 0.865524
vt 0.763517 0.880639
vt 0.734920 0.919708
vt 0.706659 0.880429
vt 0.752707 0.865641
vt 0.752521 0.914068
vt 0.706578 0.898874
vt 0.763445 0.899151
vt 0.723813 0.874432
vt 0.735136 0.859865
vt 0.753086 0.883826
vt 0.735113 0.908816
vt 0.716957 0.883975
vt 0.746263 0.905144
vt 0.717000 0.895689
vt 0.734954 0.870754
vt 0.753128 0.895609
vt 0.723930 0.905207
vt 0.749498 0.885136
vt 0.734972 0.905006
vt 0.720625 0.885019
vt 0.744032 0.877524
vt 0.746154 0.874352
vt 0.743903 0.902147
vt 0.720581 0.894368
vt 0.735096 0.874566
vt 0.749451 0.894574
vt 0.726063 0.902041
vt 0.726176 0.877424
vt 0.731623 0.894596
vt 0.729498 0.887918
vt 0.740607 0.887949
vt 0.738429 0.894566
vt 0.729630 0.891575
vt 0.735029 0.883845
vt 0.740533 0.891580
vt 0.730290 0.888126
vt 0.731624 0.884992
vt 0.737958 0.885723
vt 0.732128 0.885629
vt 0.730408 0.891303
vt 0.738423 0.885051
vt 0.737913 0.893932
vt 0.735015 0.895729
vt 0.735051 0.884654
vt 0.739743 0.891348
vt 0.732092 0.893938
vt 0.739840 0.888228
vt 0.734982 0.894921
vt 0.119498 0.658058
vt 0.054186 0.682026
vt 0.118614 0.685312
vt 0.055087 0.663288
vn 0.2432 -0.6170 -0.7484
vn 0.6367 -0.6170 0.4626
vn -0.6367 -0.6170 0.4626
vn -0.2432 -0.6170 -0.7484
vn 0.7870 -0.6170 -0.0000
vn -0.2432 -0.6170 0.7484
vn -0.6367 -0.6170 -0.4626
vn 0.6367 -0.6170 -0.4626
vn 0.2432 -0.6170 0.7484
vn -0.7870 -0.6170 0.0000
vn 0.0000 -1.0000 0.0000
vn -0.8090 0.0000 0.5878
vn -0.3090 0.0000 -0.9511
vn 1.0000 0.0000 0.0000
vn -0.3090 0.0000 0.9511
vn -0.8090 0.0000 -0.5878
vn 0.8090 0.0000 -0.5878
vn 0.3090 0.0000 0.9511
vn -1.0000 0.0000 0.0000
vn 0.3090 0.0000 -0.9511
vn 0.8090 0.0000 0.5878
vn -0.3411 0.8274 0.4460
vn 0.3411 0.8274 -0.4460
vn -0.6339 0.5429 -0.5509
vn 0.6835 0.5720 0.4535
vn 0.0000 1.0000 0.0000
vn 0.2432 0.6170 -0.7484
vn 0.6367 0.6170 0.4626
vn -0.6367 0.6170 0.4626
vn -0.2432 0.6170 -0.7484
vn 0.7870 0.6170 -0.0000
vn -0.2432 0.6170 0.7484
vn -0.6367 0.6170 -0.4626
vn 0.6367 0.6170 -0.4626
vn 0.2432 0.6170 0.7484
vn -0.7870 0.6170 0.0000
vn -0.3411 -0.8274 0.4460
vn 0.3411 -0.8274 -0.4460
vn -0.6167 -0.5720 -0.5408
vn 0.6835 -0.5720 0.4535
vn -0.6167 0.5720 -0.5408
vn 0.6977 0.5429 0.4675
vn -0.6339 -0.5429 -0.5509
vn 0.6977 -0.5429 0.4675
s off
f 60/1/1 5/2/1 6/3/1
f 56/4/2 3/5/2 57/6/2
f 63/7/3 10/8/3 64/9/3
f 60/1/4 7/10/4 61/11/4
f 57/6/5 4/12/5 58/13/5
f 55/14/6 10/8/6 1/15/6
f 62/16/7 7/10/7 8/17/7
f 58/13/8 5/2/8 59/18/8
f 56/4/9 1/15/9 2/19/9
f 62/16/10 9/20/10 63/7/10
f 2/19/11 13/21/11 3/5/11
f 9/20/11 20/22/11 10/8/11
f 6/3/11 17/23/11 7/10/11
f 3/5/11 14/24/11 4/12/11
f 1/15/11 20/22/11 11/25/11
f 7/10/11 18/26/11 8/17/11
f 5/2/11 14/24/11 15/27/11
f 1/15/11 12/28/11 2/19/11
f 8/17/11 19/29/11 9/20/11
f 5/2/11 16/30/11 6/3/11
f 19/29/12 30/31/12 20/22/12
f 16/30/13 27/32/13 17/23/13
f 13/21/14 24/33/14 14/24/14
f 20/22/15 21/34/15 11/25/15
f 17/23/16 28/35/16 18/26/16
f 14/24/17 25/36/17 15/27/17
f 11/25/18 22/37/18 12/28/18
f 18/26/19 29/38/19 19/29/19
f 15/27/20 26/39/20 16/30/20
f 12/28/21 23/40/21 13/21/21
f 26/39/11 37/41/11 27/32/11
f 23/40/11 34/42/11 24/33/11
f 21/34/11 40/43/11 31/44/11
f 27/32/11 38/45/11 28/35/11
f 24/33/11 35/46/11 25/36/11
f 21/34/11 32/47/11 22/37/11
f 28/35/11 39/48/11 29/38/11
f 25/36/11 36/49/11 26/39/11
f 23/40/11 32/47/11 33/50/11
f 30/31/11 39/48/11 40/43/11
f 33/50/19 44/51/19 34/42/19
f 41/52/11 49/53/11 45/54/11
f 40/43/20 41/52/20 31/44/20
f 37/41/21 48/55/21 38/45/21
f 34/42/12 45/54/12 35/46/12
f 31/44/13 42/56/13 32/47/13
f 38/45/14 49/53/14 39/48/14
f 35/46/15 46/57/15 36/49/15
f 32/47/16 43/58/16 33/50/16
f 39/48/17 50/59/17 40/43/17
f 36/49/18 47/60/18 37/41/18
f 117/61/22 54/62/22 118/63/22
f 115/64/23 52/65/23 51/66/23
f 116/67/24 54/62/24 52/65/24
f 115/64/25 53/68/25 117/61/25
f 52/65/26 53/68/26 51/66/26
f 70/69/27 59/18/27 60/1/27
f 67/70/28 56/4/28 57/6/28
f 74/71/29 63/7/29 64/9/29
f 71/72/30 60/1/30 61/11/30
f 68/73/31 57/6/31 58/13/31
f 65/74/32 64/9/32 55/14/32
f 72/75/33 61/11/33 62/16/33
f 69/76/34 58/13/34 59/18/34
f 56/4/35 65/74/35 55/14/35
f 73/77/36 62/16/36 63/7/36
f 77/78/26 66/79/26 67/70/26
f 84/80/26 73/77/26 74/71/26
f 81/81/26 70/69/26 71/72/26
f 78/82/26 67/70/26 68/73/26
f 65/74/26 84/80/26 74/71/26
f 82/83/26 71/72/26 72/75/26
f 79/84/26 68/73/26 69/76/26
f 76/85/26 65/74/26 66/79/26
f 83/86/26 72/75/26 73/77/26
f 80/87/26 69/76/26 70/69/26
f 94/88/12 83/86/12 84/80/12
f 91/89/13 80/87/13 81/81/13
f 88/90/14 77/78/14 78/82/14
f 85/91/15 84/80/15 75/92/15
f 92/93/16 81/81/16 82/83/16
f 89/94/17 78/82/17 79/84/17
f 86/95/18 75/92/18 76/85/18
f 93/96/19 82/83/19 83/86/19
f 90/97/20 79/84/20 80/87/20
f 87/98/21 76/85/21 77/78/21
f 91/89/26 100/99/26 90/97/26
f 98/100/26 87/98/26 88/90/26
f 85/91/26 104/101/26 94/88/26
f 102/102/26 91/89/26 92/93/26
f 99/103/26 88/90/26 89/94/26
f 96/104/26 85/91/26 86/95/26
f 103/105/26 92/93/26 93/96/26
f 100/99/26 89/94/26 90/97/26
f 87/98/26 96/104/26 86/95/26
f 94/88/26 103/105/26 93/96/26
f 108/106/19 97/107/19 98/100/19
f 105/108/26 107/109/26 109/110/26
f 105/108/20 104/101/20 95/111/20
f 112/112/21 101/113/21 102/102/21
f 109/110/12 98/100/12 99/103/12
f 106/114/13 95/111/13 96/104/13
f 113/115/14 102/102/14 103/105/14
f 110/116/15 99/103/15 100/99/15
f 107/109/16 96/104/16 97/107/16
f 114/117/17 103/105/17 104/101/17
f 111/118/18 100/99/18 101/113/18
f 122/119/37 117/61/37 118/63/37
f 119/120/38 116/67/38 115/64/38
f 116/67/39 122/119/39 118/63/39
f 121/121/40 115/64/40 117/61/40
f 121/121/11 120/122/11 119/120/11
f 60/1/1 59/18/1 5/2/1
f 56/4/2 2/19/2 3/5/2
f 63/7/3 9/20/3 10/8/3
f 60/1/4 6/3/4 7/10/4
f 57/6/5 3/5/5 4/12/5
f 55/14/6 64/9/6 10/8/6
f 62/16/7 61/11/7 7/10/7
f 58/13/8 4/12/8 5/2/8
f 56/4/9 55/14/9 1/15/9
f 62/16/10 8/17/10 9/20/10
f 2/19/11 12/28/11 13/21/11
f 9/20/11 19/29/11 20/22/11
f 6/3/11 16/30/11 17/23/11
f 3/5/11 13/21/11 14/24/11
f 1/15/11 10/8/11 20/22/11
f 7/10/11 17/23/11 18/26/11
f 5/2/11 4/12/11 14/24/11
f 1/15/11 11/25/11 12/28/11
f 8/17/11 18/26/11 19/29/11
f 5/2/11 15/27/11 16/30/11
f 19/29/12 29/38/12 30/31/12
f 16/30/13 26/39/13 27/32/13
f 13/21/14 23/40/14 24/33/14
f 20/22/15 30/31/15 21/34/15
f 17/23/16 27/32/16 28/35/16
f 14/24/17 24/33/17 25/36/17
f 11/25/18 21/34/18 22/37/18
f 18/26/19 28/35/19 29/38/19
f 15/27/20 25/36/20 26/39/20
f 12/28/21 22/37/21 23/40/21
f 26/39/11 36/49/11 37/41/11
f 23/40/11 33/50/11 34/42/11
f 21/34/11 30/31/11 40/43/11
f 27/32/11 37/41/11 38/45/11
f 24/33/11 34/42/11 35/46/11
f 21/34/11 31/44/11 32/47/11
f 28/35/11 38/45/11 39/48/11
f 25/36/11 35/46/11 36/49/11
f 23/40/11 22/37/11 32/47/11
f 30/31/11 29/38/11 39/48/11
f 33/50/19 43/58/19 44/51/19
f 43/58/11 42/56/11 41/52/11
f 41/52/11 50/59/11 49/53/11
f 49/53/11 48/55/11 45/54/11
f 48/55/11 47/60/11 45/54/11
f 47/60/11 46/57/11 45/54/11
f 45/54/11 44/51/11 43/58/11
f 43/58/11 41/52/11 45/54/11
f 40/43/20 50/59/20 41/52/20
f 37/41/21 47/60/21 48/55/21
f 34/42/12 44/51/12 45/54/12
f 31/44/13 41/52/13 42/56/13
f 38/45/14 48/55/14 49/53/14
f 35/46/15 45/54/15 46/57/15
f 32/47/16 42/56/16 43/58/16
f 39/48/17 49/53/17 50/59/17
f 36/49/18 46/57/18 47/60/18
f 117/61/22 53/68/22 54/62/22
f 115/64/23 116/67/23 52/65/23
f 116/67/41 118/63/41 54/62/41
f 115/64/42 51/66/42 53/68/42
f 52/65/26 54/62/26 53/68/26
f 70/69/27 69/76/27 59/18/27
f 67/70/28 66/79/28 56/4/28
f 74/71/29 73/77/29 63/7/29
f 71/72/30 70/69/30 60/1/30
f 68/73/31 67/70/31 57/6/31
f 65/74/32 74/71/32 64/9/32
f 72/75/33 71/72/33 61/11/33
f 69/76/34 68/73/34 58/13/34
f 56/4/35 66/79/35 65/74/35
f 73/77/36 72/75/36 62/16/36
f 77/78/26 76/85/26 66/79/26
f 84/80/26 83/86/26 73/77/26
f 81/81/26 80/87/26 70/69/26
f 78/82/26 77/78/26 67/70/26
f 65/74/26 75/92/26 84/80/26
f 82/83/26 81/81/26 71/72/26
f 79/84/26 78/82/26 68/73/26
f 76/85/26 75/92/26 65/74/26
f 83/86/26 82/83/26 72/75/26
f 80/87/26 79/84/26 69/76/26
f 94/88/12 93/96/12 83/86/12
f 91/89/13 90/97/13 80/87/13
f 88/90/14 87/98/14 77/78/14
f 85/91/15 94/88/15 84/80/15
f 92/93/16 91/89/16 81/81/16
f 89/94/17 88/90/17 78/82/17
f 86/95/18 85/91/18 75/92/18
f 93/96/19 92/93/19 82/83/19
f 90/97/20 89/94/20 79/84/20
f 87/98/21 86/95/21 76/85/21
f 91/89/26 101/113/26 100/99/26
f 98/100/26 97/107/26 87/98/26
f 85/91/26 95/111/26 104/101/26
f 102/102/26 101/113/26 91/89/26
f 99/103/26 98/100/26 88/90/26
f 96/104/26 95/111/26 85/91/26
f 103/105/26 102/102/26 92/93/26
f 100/99/26 99/103/26 89/94/26
f 87/98/26 97/107/26 96/104/26
f 94/88/26 104/101/26 103/105/26
f 108/106/19 107/109/19 97/107/19
f 105/108/26 106/114/26 107/109/26
f 107/109/26 108/106/26 109/110/26
f 109/110/26 110/116/26 111/118/26
f 111/118/26 112/112/26 109/110/26
f 112/112/26 113/115/26 109/110/26
f 113/115/26 114/117/26 109/110/26
f 114/117/26 105/108/26 109/110/26
f 105/108/20 114/117/20 104/101/20
f 112/112/21 111/118/21 101/113/21
f 109/110/12 108/106/12 98/100/12
f 106/114/13 105/108/13 95/111/13
f 113/115/14 112/112/14 102/102/14
f 110/116/15 109/110/15 99/103/15
f 107/109/16 106/114/16 96/104/16
f 114/117/17 113/115/17 103/105/17
f 111/118/18 110/116/18 100/99/18
f 122/119/37 121/121/37 117/61/37
f 119/120/38 120/122/38 116/67/38
f 116/67/43 120/122/43 122/119/43
f 121/121/44 119/120/44 115/64/44
f 121/121/11 122/119/11 120/122/11
